<svg width="34" height="34" viewBox="0 0 34 34" fill="none" xmlns="http://www.w3.org/2000/svg">
<path fill-rule="evenodd" clip-rule="evenodd" d="M33.6668 17.0002C33.6668 26.2048 26.2048 33.6668 17.0002 33.6668C7.79541 33.6668 0.333496 26.2048 0.333496 17.0002C0.333496 7.79541 7.79541 0.333496 17.0002 0.333496C26.2048 0.333496 33.6668 7.79541 33.6668 17.0002ZM23.7173 11.9496C24.2055 12.4378 24.2055 13.2292 23.7173 13.7173L15.384 22.0507C14.8958 22.5388 14.1045 22.5388 13.6163 22.0507L10.2829 18.7173C9.7948 18.2292 9.7948 17.4378 10.2829 16.9497C10.7711 16.4615 11.5626 16.4615 12.0507 16.9497L14.5002 19.399L18.2248 15.6743L21.9497 11.9496C22.4378 11.4615 23.2292 11.4615 23.7173 11.9496Z" fill="#FFBB6B"/>
</svg>
