<svg width="29" height="27" viewBox="0 0 29 27" fill="none" xmlns="http://www.w3.org/2000/svg">
<path d="M13.0225 0.4658C13.9035 -0.155267 15.0965 -0.155266 15.9775 0.4658L27.9637 8.91568C28.8447 9.53675 29.2133 10.6376 28.8768 11.6425L24.2985 25.3147C23.962 26.3196 22.9969 27 21.9079 27H7.09211C6.00315 27 5.03803 26.3196 4.70153 25.3147L0.123196 11.6425C-0.213311 10.6376 0.15533 9.53675 1.03632 8.91568L13.0225 0.4658Z" fill="#1D2022" fill-opacity="0.2"/>
<path d="M22.0765 12.1765C22.5744 11.6786 22.5744 10.8713 22.0765 10.3734C21.5786 9.87552 20.7714 9.87552 20.2735 10.3734L16.4742 14.1726L12.675 17.9718L10.1766 15.4735C9.67864 14.9756 8.87135 14.9756 8.37343 15.4735C7.87552 15.9714 7.87552 16.7786 8.37343 17.2765L11.7734 20.6765C12.2714 21.1744 13.0786 21.1744 13.5765 20.6765L22.0765 12.1765Z" fill="#1D2022"/>
</svg>
