<svg width="180" height="37" viewBox="0 0 180 37" fill="none" xmlns="http://www.w3.org/2000/svg">
<path d="M47.852 18.3322C49.6619 17.5995 50.4454 15.6285 50.4454 13.7346C50.4454 9.99818 48.6654 7.92432 44.6455 7.92432H39.084V29.8884H45.0032C49.2701 29.8884 50.8713 27.1504 50.8713 23.5297C50.8713 20.7017 49.7513 19.1849 47.852 18.3322ZM42.8314 11.0308H44.2537C45.9187 11.0308 46.7023 12.0935 46.7023 14.133C46.7023 15.9584 45.6121 16.9353 44.1898 16.9353H42.8314V11.0308ZM44.3985 26.7862H42.8314V20.0376H44.0408C46.2764 20.0376 47.1239 21.1602 47.1239 23.4097C47.1239 25.6593 46.3999 26.7862 44.3985 26.7862Z" fill="#1D2022"/>
<path d="M60.3629 7.62012C56.4324 7.62012 54.6226 10.1439 54.6226 13.2504V24.5667C54.6226 27.6689 56.4324 30.1969 60.3629 30.1969C64.2934 30.1969 66.1075 27.6732 66.1075 24.5667V13.2504C66.1075 10.1482 64.2934 7.62012 60.3629 7.62012ZM62.3558 24.4724C62.3558 26.1135 61.8746 26.8976 60.3629 26.8976C58.8512 26.8976 58.37 26.1135 58.37 24.4724V13.3361C58.37 11.695 58.8554 10.9023 60.3629 10.9023C61.8704 10.9023 62.3558 11.695 62.3558 13.3361V24.4724Z" fill="#1D2022"/>
<path d="M142.717 20.1575H147.563V16.8753H142.717V11.2151H149.011V7.92432H138.969V29.8884H149.432V26.6062H142.717V20.1575Z" fill="#1D2022"/>
<path d="M134.792 7.92432H131.036V29.8884H134.792V7.92432Z" fill="#1D2022"/>
<path d="M91.1122 16.2926H91.0526L88.4252 7.92432H84.6182L89.1491 20.7617V29.8884H92.9008V20.7617L97.4317 7.92432H93.6204L91.1122 16.2926Z" fill="#1D2022"/>
<path d="M76.392 7.92432H70.8306V29.8884H76.392C80.2587 29.8884 82.3197 27.7588 82.3197 23.2598V14.5615C82.3197 10.0539 80.2629 7.9286 76.392 7.9286V7.92432ZM78.5638 23.714C78.5638 26.0278 77.8782 26.7862 75.8725 26.7862H74.578V11.0265H75.8725C77.874 11.0265 78.5638 11.7892 78.5638 14.0988V23.714Z" fill="#1D2022"/>
<path d="M126.552 14.4071C126.552 9.72381 124.406 7.92847 120.207 7.92847H114.943V29.8926H118.691V20.8901C119.359 20.8901 120.143 20.8601 120.628 20.8001L123.29 29.8926H127.101L123.92 19.9474C125.193 19.369 126.552 17.9421 126.552 14.4071ZM120.024 17.7879H118.691V11.0307H120.024C122.051 11.0307 122.809 11.7934 122.809 14.4071C122.809 17.0209 122.051 17.7879 120.024 17.7879Z" fill="#1D2022"/>
<path d="M100.635 29.8884H104.386V20.1575H109.407V16.8753H104.386V11.2151H111.102V7.92432H100.635V29.8884Z" fill="#1D2022"/>
<path d="M16.5439 17.5396C17.4339 17.501 18.2388 17.5139 18.9797 17.5567C18.5709 17.9381 18.1323 18.3066 17.6341 18.6236C16.0159 19.6434 13.8441 20.2133 11.3529 20.269H11.2465C10.3607 20.3076 9.55586 20.2947 8.81064 20.2562C9.21945 19.8748 9.65381 19.5106 10.1563 19.1935C11.7745 18.1737 13.9463 17.6038 16.4374 17.5439H16.5439V17.5396ZM27.7904 0.927246V36.8856H0V0.927246H27.7904ZM24.9713 18.1437C24.95 18.0538 24.8946 17.9809 24.8095 17.9295C24.0387 17.5053 23.1402 17.2054 22.0373 16.9311C23.0422 15.0844 23.5745 12.7063 23.7023 11.8536C23.7108 11.7807 23.7278 11.6822 23.7491 11.5579C23.8513 10.9495 24.0387 9.814 24.0898 8.75136C24.1622 7.17454 24.2048 6.14618 24.1963 5.55487C24.1963 5.36634 24.043 5.21209 23.8556 5.21209C23.6682 5.21209 23.5149 5.36634 23.5149 5.55059C23.5149 5.58915 23.2935 9.65118 21.9819 13.0405C21.7051 13.7561 21.0791 15.1401 19.9975 16.4769C19.2097 16.3355 17.3871 16.0527 15.4069 16.0527C14.9768 16.0527 14.5595 16.0656 14.1677 16.0956C13.5162 16.1427 11.255 16.3698 9.38978 17.3725C8.14633 18.0409 7.08599 18.9579 6.34503 19.9648C5.28894 19.7848 4.41597 19.5663 3.74314 19.3863C3.58558 19.3435 3.44079 19.3049 3.30026 19.2706C3.08309 19.2021 2.94682 19.2578 2.85739 19.4078C2.76796 19.5706 2.82332 19.7805 2.98514 19.8748C3.75591 20.3033 4.65018 20.5989 5.75737 20.8732C4.75664 22.7199 4.22434 25.098 4.09233 25.9507C4.08381 26.0193 4.06678 26.1221 4.04549 26.2421C3.94328 26.8505 3.75591 27.986 3.70481 29.0487C3.64094 30.4841 3.58984 31.6324 3.59835 32.2451C3.59835 32.4337 3.75166 32.5879 3.93903 32.5879C4.1264 32.5879 4.2797 32.4337 4.2797 32.2537C4.2797 32.2151 4.51391 28.1188 5.81272 24.7595C6.08952 24.044 6.71551 22.66 7.79714 21.3231C8.58495 21.4645 10.4118 21.7473 12.392 21.7473C12.8221 21.7473 13.2351 21.7344 13.6269 21.7044C14.2784 21.6573 16.5396 21.4302 18.4048 20.4276C19.6653 19.7505 20.7001 18.855 21.4496 17.8309C22.5057 18.0109 23.3787 18.2337 24.0557 18.4094C24.2133 18.4522 24.3581 18.4908 24.4944 18.5251C24.6732 18.5851 24.8478 18.5337 24.933 18.3923C24.9798 18.3151 24.9926 18.2209 24.9713 18.1352V18.1437Z" fill="#1D2022"/>
<path d="M160.942 20.4918H160.878L156.313 7.92432H152.838V29.8884H156.224V16.1769H156.288L161.057 29.8884H164.328V7.92432H160.942V20.4918Z" fill="#1D2022"/>
<path d="M174.007 7.92432H168.446V29.8884H174.007C177.874 29.8884 179.931 27.7588 179.931 23.2598V14.5615C179.931 10.0625 177.874 7.9286 174.007 7.9286V7.92432ZM176.179 23.714C176.179 26.0278 175.485 26.7862 173.492 26.7862H172.193V11.0223H173.492C175.485 11.0223 176.179 11.7892 176.179 14.1031V23.714Z" fill="#1D2022"/>
</svg>
