<svg width="40" height="40" viewBox="0 0 40 40" fill="none" xmlns="http://www.w3.org/2000/svg">
<path d="M20 33.027L18.3031 31.51C15.732 29.2346 13.6109 27.2753 11.9397 25.6319C10.2685 23.9886 8.94444 22.5283 7.96744 21.251C6.99044 19.9748 6.30912 18.8118 5.92346 17.7621C5.5378 16.7134 5.34497 15.6454 5.34497 14.5583C5.34497 12.4093 6.08441 10.6077 7.56327 9.15347C9.04112 7.70024 10.8727 6.97363 13.0581 6.97363C14.3951 6.97363 15.6677 7.28309 16.8761 7.902C18.0845 8.52192 19.1258 9.41337 20 10.5763C20.8741 9.41337 21.9154 8.52192 23.1238 7.902C24.3322 7.28309 25.6049 6.97363 26.9418 6.97363C29.1272 6.97363 30.9588 7.70024 32.4367 9.15347C33.9155 10.6077 34.655 12.4093 34.655 14.5583C34.655 15.6454 34.4621 16.7134 34.0765 17.7621C33.6908 18.8118 33.0095 19.9748 32.0325 21.251C31.0555 22.5283 29.7314 23.9886 28.0602 25.6319C26.389 27.2753 24.2679 29.2346 21.6969 31.51L20 33.027Z" stroke="#1D2022" stroke-width="2.5" stroke-linejoin="round"/>
<path d="M20.0002 21.2505L20.0002 15.2505" stroke="#1D2022" stroke-width="2.5" stroke-linecap="round" stroke-linejoin="round"/>
<circle cx="1.27673" cy="1.27673" r="1.27673" transform="matrix(-1 -8.74228e-08 -8.74228e-08 1 21.2769 23.748)" fill="#1D2022"/>
</svg>
