<svg width="30" height="30" viewBox="0 0 30 30" fill="none" xmlns="http://www.w3.org/2000/svg">
<path d="M15 24.999L13.6974 23.8345C11.7237 22.0878 10.0954 20.5837 8.8125 19.3222C7.52961 18.0606 6.51316 16.9396 5.76316 15.9591C5.01316 14.9794 4.49013 14.0867 4.19408 13.2808C3.89803 12.4758 3.75 11.656 3.75 10.8214C3.75 9.17175 4.31763 7.78874 5.45289 6.67239C6.58737 5.55681 7.99342 4.99902 9.67105 4.99902C10.6974 4.99902 11.6743 5.23658 12.602 5.71169C13.5296 6.18757 14.3289 6.8719 15 7.76467C15.6711 6.8719 16.4704 6.18757 17.398 5.71169C18.3257 5.23658 19.3026 4.99902 20.3289 4.99902C22.0066 4.99902 23.4126 5.55681 24.5471 6.67239C25.6824 7.78874 26.25 9.17175 26.25 10.8214C26.25 11.656 26.102 12.4758 25.8059 13.2808C25.5099 14.0867 24.9868 14.9794 24.2368 15.9591C23.4868 16.9396 22.4704 18.0606 21.1875 19.3222C19.9046 20.5837 18.2763 22.0878 16.3026 23.8345L15 24.999Z" fill="#FFBB6B" stroke="#FFBB6B" stroke-width="1.125" stroke-linejoin="round"/>
</svg>
