<svg width="400" height="80" viewBox="0 0 400 80" fill="none" xmlns="http://www.w3.org/2000/svg">
<path d="M0 80H61.7772V0H0V80ZM7.68429 62.3535C7.79785 59.7237 8.36568 56.7889 8.47925 55.9505C8.81993 53.5874 10.2583 47.7942 12.7188 44.1353C12.946 43.7923 13.5138 42.9538 14.4601 41.9628C13.0217 41.5436 11.8482 41.0481 10.7883 40.4383C10.5991 40.324 10.5612 40.0953 10.6369 39.9428C10.7505 39.7523 10.9776 39.7141 11.129 39.7904C12.2646 40.0953 13.703 40.5145 15.5579 40.8957C16.5421 40.0572 17.7534 39.1425 19.2675 38.3421C22.6744 36.5126 26.8761 35.9028 29.0338 35.7122C34.7497 35.3311 40.8441 36.4364 41.8662 36.6651C42.3204 36.7413 42.7368 36.8556 43.1532 36.9319C47.2414 33.5398 49.4369 28.9281 50.3075 26.6413C53.0709 19.5522 53.5251 11.0148 53.5251 10.9767C53.5251 10.7861 53.6765 10.5955 53.9037 10.5955C54.1308 10.5955 54.2822 10.748 54.2822 10.9767C54.2822 12.2344 54.2065 14.4831 54.055 17.6084C53.9415 20.2382 53.3737 23.1729 53.2601 24.0114C52.9194 26.3745 51.481 32.1677 49.0205 35.8266C48.7934 36.1696 48.2256 37.0081 47.2793 37.9991C48.7177 38.4183 49.8911 38.9138 50.951 39.5236C51.1403 39.6379 51.1782 39.8666 51.1025 40.0191C50.9889 40.2096 50.7618 40.2477 50.6104 40.1715C49.4748 39.8666 48.0363 39.4474 46.1815 39.0662C45.2352 39.9047 43.986 40.8194 42.4718 41.6198C39.065 43.4493 34.8632 44.0591 32.7056 44.2496C26.9897 44.6689 20.8952 43.5255 19.8732 43.2968C19.4189 43.2206 19.0026 43.1062 18.5862 43.03C14.498 46.4221 12.3025 51.0338 11.4318 53.3206C8.66851 60.4097 8.21427 68.9852 8.21427 68.9852C8.21427 69.1758 8.06283 69.3664 7.83571 69.3664C7.60859 69.3664 7.45718 69.2139 7.45718 68.9852C7.45718 67.7275 7.53288 65.4788 7.68429 62.3535Z" fill="black"/>
<path d="M27.7846 41.9232C28.6173 41.9232 35.6581 41.9232 41.2226 38.4563C41.2983 38.4182 41.3362 38.3801 41.4119 38.3039C39.2921 38.0753 36.8316 37.961 33.9926 38.0753C33.1598 38.0753 26.119 38.0753 20.5545 41.5422C20.4788 41.5803 20.4409 41.6184 20.3652 41.6946C22.5229 41.9232 24.9455 42.0375 27.7846 41.9232Z" fill="black"/>
<path d="M106.369 38.7235C110.381 37.0846 112.122 32.7016 112.122 28.5091C112.122 20.2004 108.186 15.5887 99.2142 15.5887H86.8361V64.45H100.009C109.51 64.45 113.069 58.3519 113.069 50.31C113.069 44.0213 110.57 40.6292 106.369 38.7616V38.7235ZM95.2017 22.4872H98.3436C102.053 22.4872 103.795 24.8502 103.795 29.3857C103.795 33.4639 101.372 35.6363 98.1922 35.6363H95.1639V22.4872H95.2017ZM98.6842 57.5515H95.2017V42.5348H97.8893C102.848 42.5348 104.741 45.0503 104.741 50.0432C104.741 55.036 103.113 57.5515 98.6842 57.5515Z" fill="black"/>
<path d="M134.191 14.902C125.447 14.902 121.434 20.5046 121.434 27.4413V52.5961C121.434 59.4946 125.447 65.1354 134.191 65.1354C142.935 65.1354 146.948 59.5328 146.948 52.5961V27.4413C146.948 20.5428 142.897 14.902 134.191 14.902ZM138.62 52.4056C138.62 56.0644 137.56 57.8177 134.191 57.8177C130.822 57.8177 129.762 56.0644 129.762 52.4056V27.6319C129.762 23.973 130.822 22.2197 134.191 22.2197C137.56 22.2197 138.62 23.973 138.62 27.6319V52.4056Z" fill="black"/>
<path d="M357.793 43.5258H357.642L347.497 15.5887H339.775V64.4119H347.308V33.9212H347.459L358.058 64.4119H365.326V15.5887H357.793V43.5258Z" fill="black"/>
<path d="M317.289 42.7635H328.04V35.4839H317.289V22.9065H331.257V15.5887H308.962V64.4119H332.204V57.1323H317.289V42.7635Z" fill="black"/>
<path d="M386.827 15.5887H374.449V64.45H386.827C395.42 64.45 400 59.724 400 49.7002V30.3386C400 20.3147 395.42 15.5887 386.827 15.5887ZM391.634 50.6911C391.634 55.8364 390.082 57.5134 385.653 57.5134H382.776V22.4491H385.653C390.082 22.4491 391.634 24.1642 391.634 29.3095V50.6911Z" fill="black"/>
<path d="M299.688 15.5887H291.322V64.45H299.688V15.5887Z" fill="black"/>
<path d="M202.555 34.188H202.442L196.575 15.5887H188.133L198.202 44.1356V64.4119H206.53V44.1356L216.599 15.5887H208.158L202.555 34.188Z" fill="black"/>
<path d="M169.85 15.5887H157.472V64.45H169.85C178.442 64.45 183.023 59.724 183.023 49.7002V30.3386C183.023 20.3147 178.442 15.5887 169.85 15.5887ZM174.695 50.6911C174.695 55.8364 173.181 57.5134 168.714 57.5134H165.837V22.4491H168.714C173.181 22.4491 174.695 24.1642 174.695 29.2714V50.653V50.6911Z" fill="black"/>
<path d="M281.328 29.9955C281.328 19.5906 276.558 15.5887 267.209 15.5887H255.512V64.45H263.84V44.4405C265.316 44.4405 267.057 44.3643 268.155 44.25L274.06 64.4882H282.539L275.461 42.3824C278.3 41.0865 281.328 37.9231 281.328 30.0718V29.9955ZM266.83 37.5039H263.878V22.4872H266.83C271.335 22.4872 273 24.2023 273 29.9955C273 35.7888 271.297 37.5039 266.83 37.5039Z" fill="black"/>
<path d="M223.715 64.4119H232.08V42.7635H243.209V35.4839H232.08V22.9065H246.995V15.5887H223.715V64.4119Z" fill="black"/>
</svg>
