<svg width="40" height="40" viewBox="0 0 40 40" fill="none" xmlns="http://www.w3.org/2000/svg">
<rect x="5.00008" y="13.3333" width="26.6667" height="13.3333" rx="0.833333" fill="#1D2022" stroke="#1D2022" stroke-width="1.66667"/>
<rect x="1.66671" y="9.99984" width="33.3333" height="20" rx="2.5" stroke="#1D2022" stroke-width="1.66667"/>
<path d="M35.8334 15H37.5C38.4205 15 39.1667 15.7462 39.1667 16.6667V23.3333C39.1667 24.2538 38.4205 25 37.5 25H35.8334V15Z" fill="#1D2022"/>
<path d="M21.0818 19.0057C20.7682 18.9977 20.4533 19.0084 20.1385 19.003C19.5606 18.9923 19.2698 18.7 19.2596 18.0832C19.2495 17.4531 19.2672 16.823 19.2723 16.1929C19.2672 15.7791 19.2571 15.3639 19.2571 14.9501C19.2571 14.4748 19.0561 14.1451 18.6185 14.0303C18.1962 13.9195 17.8927 14.1197 17.6917 14.5202C16.847 16.2036 15.9922 17.883 15.1526 19.569C14.7681 20.3407 15.1361 20.9561 15.9656 20.9841C16.4019 20.9988 16.8457 20.9094 17.2756 21.0589C17.6297 21.2952 17.7524 21.6396 17.746 22.0735C17.7321 23.036 17.741 23.9971 17.7422 24.9597C17.7422 25.5591 17.9471 25.8875 18.3694 25.9769C18.831 26.0744 19.1395 25.8661 19.3671 25.3014C19.4873 25.0972 19.6074 24.8916 19.7288 24.6873C19.7642 24.5965 19.7945 24.5031 19.8375 24.4163C20.514 23.0693 21.2006 21.7277 21.867 20.3754C22.2186 19.6612 21.8443 19.0244 21.083 19.003L21.0818 19.0057Z" fill="white"/>
</svg>
