<svg width="48" height="48" viewBox="0 0 48 48" fill="none" xmlns="http://www.w3.org/2000/svg">
<path d="M30.132 37V38.058C30.132 41.4454 27.386 44.1914 23.9986 44.1914C20.6112 44.1914 17.8652 41.4454 17.8652 38.058V37" stroke="#F2C38C" stroke-width="3"/>
<path d="M24.0015 5.5C22.6776 5.50199 20.0111 5.91 19.2517 10.1599C16.8517 11.0519 12.358 12.7195 12.1141 25.2155C12.0576 28.109 11.1913 30.0642 9.44991 31.9763L7.63954 34.0934C7.63954 34.0934 5.78395 36.3705 8.66124 36.3705C12.1139 36.3705 24 36.3705 24 36.3705" stroke="#F2C38C" stroke-width="3" stroke-linejoin="round"/>
<path d="M23.9985 5.5C25.3219 5.50169 27.9886 5.90841 28.7483 10.1599C31.1483 11.0519 35.642 12.7195 35.8859 25.2155C35.9424 28.109 36.8087 30.0642 38.5501 31.9763L40.3605 34.0934C40.3605 34.0934 42.2161 36.3705 39.3388 36.3705C35.8918 36.3705 24.0372 36.3705 23.9984 36.3705" stroke="#F2C38C" stroke-width="3" stroke-linejoin="round"/>
</svg>
