<svg width="34" height="34" viewBox="0 0 34 34" fill="none" xmlns="http://www.w3.org/2000/svg">
<path fill-rule="evenodd" clip-rule="evenodd" d="M34 17C34 26.3888 26.3888 34 17 34C7.61116 34 0 26.3888 0 17C0 7.61116 7.61116 0 17 0C26.3888 0 34 7.61116 34 17ZM23.8515 11.8484C24.3494 12.3464 24.3494 13.1536 23.8515 13.6515L15.3515 22.1515C14.8536 22.6494 14.0464 22.6494 13.5484 22.1515L10.1484 18.7515C9.65053 18.2536 9.65053 17.4464 10.1484 16.9485C10.6464 16.4506 11.4536 16.4506 11.9516 16.9485L14.45 19.4468L18.2492 15.6477L22.0485 11.8484C22.5464 11.3505 23.3536 11.3505 23.8515 11.8484Z" fill="#E0E0E0"/>
</svg>
