<svg width="36" height="30" viewBox="0 0 36 30" fill="none" xmlns="http://www.w3.org/2000/svg">
<path d="M5.17676 9.64313C5.17676 7.52773 5.91619 5.75427 7.39505 4.32277C8.87289 2.89226 10.7045 2.177 12.8899 2.177C14.2268 2.177 15.4995 2.48162 16.7079 3.09086C17.9163 3.70109 18.9576 4.57861 19.8317 5.72341C20.7059 4.57861 21.7471 3.70109 22.9555 3.09086C24.1639 2.48162 25.4366 2.177 26.7735 2.177C28.9589 2.177 30.7905 2.89226 32.2684 4.32277C33.7472 5.75427 34.4867 7.52773 34.4867 9.64313C34.4867 10.7133 34.2938 11.7645 33.9082 12.7968C33.5225 13.8301 32.8412 14.9749 31.8642 16.2312C30.8872 17.4885 29.5631 18.926 27.8919 20.5437C26.2207 22.1613 24.0996 24.0901 21.5286 26.3299L19.8317 27.8232L18.1348 26.3299C15.5638 24.0901 13.4427 22.1613 11.7715 20.5437C10.1003 18.926 8.77622 17.4885 7.79922 16.2312C7.24435 15.5177 6.78485 14.8402 6.42071 14.1986" stroke="#1D2022" stroke-width="2.5" stroke-linecap="round" stroke-linejoin="round"/>
<path d="M1.51318 13.863H11.3046L13.3891 9.31494L16.4212 17.6531L19.2637 9.31494L21.1588 13.863H26.8439" stroke="#1D2022" stroke-width="2.5" stroke-linecap="round" stroke-linejoin="round"/>
</svg>
