<svg width="40" height="40" viewBox="0 0 40 40" fill="none" xmlns="http://www.w3.org/2000/svg">
<circle cx="20" cy="20" r="5" stroke="#1D2022" stroke-width="2.5"/>
<path d="M20 35C19.1376 35 18.2626 35 17.4002 35C16.2877 35 15.3003 34.1875 15.1003 33.1375C14.9878 32.575 14.9003 32.0125 14.8003 31.45C14.6128 30.35 13.4254 29.7125 12.3255 30.1125C11.8005 30.3125 11.2755 30.5 10.7506 30.675C9.62565 31.0375 8.50072 30.65 7.90076 29.6625C7.01332 28.2125 6.15087 26.7625 5.30092 25.3C4.73846 24.3375 4.98844 23.15 5.85089 22.4375C6.28836 22.075 6.75083 21.725 7.2008 21.35C8.00075 20.6875 8.06325 19.5625 7.3508 18.825C7.10081 18.575 6.80083 18.3625 6.52585 18.1375C6.21337 17.875 5.87589 17.6375 5.60091 17.3375C4.90095 16.575 4.81345 15.525 5.35092 14.625C6.18837 13.225 7.01332 11.825 7.85076 10.425C8.38823 9.525 9.32567 9.075 10.3756 9.25C10.7756 9.3125 11.1506 9.4875 11.5255 9.6125C11.938 9.75 12.338 9.9125 12.763 10C13.6129 10.175 14.5503 9.5875 14.7503 8.7625C14.8753 8.225 14.9753 7.6875 15.0503 7.1375C15.1878 6.075 15.9128 5.2875 16.9877 5.0625C17.1502 5.025 17.3252 5.0125 17.4877 5C18.3251 5 19.1626 5 20 5" stroke="#1D2022" stroke-width="2.5" stroke-miterlimit="10"/>
<path d="M20 5C20.8374 5 21.6749 5 22.5123 5C22.6873 5 22.8498 5.025 23.0123 5.0625C24.0997 5.3 24.8122 6.0875 24.9497 7.1375C25.0247 7.6875 25.1247 8.225 25.2497 8.7625C25.4497 9.5875 26.3746 10.175 27.237 10C27.662 9.9125 28.062 9.75 28.4745 9.6125C28.8619 9.4875 29.2369 9.3125 29.6244 9.25C30.6618 9.075 31.5993 9.525 32.1492 10.425C32.9867 11.825 33.8241 13.225 34.6491 14.625C35.174 15.525 35.0991 16.575 34.3991 17.3375C34.1241 17.6375 33.7866 17.875 33.4742 18.1375C33.1992 18.3625 32.8992 18.575 32.6492 18.825C31.9368 19.5625 32.0117 20.6875 32.7992 21.35C33.2367 21.725 33.6991 22.0625 34.1491 22.4375C35.0116 23.1625 35.2615 24.3375 34.6991 25.3C33.8491 26.7625 32.9867 28.225 32.0992 29.6625C31.4993 30.65 30.3618 31.0375 29.2494 30.675C28.712 30.5 28.1995 30.3 27.6745 30.1125C26.5746 29.7125 25.3872 30.35 25.1997 31.45C25.1122 32.0125 25.0122 32.575 24.8997 33.1375C24.6997 34.1875 23.7123 35 22.5998 35C21.7374 35 20.8624 35 20 35" stroke="#1D2022" stroke-width="2.5" stroke-miterlimit="10"/>
</svg>
